<svg width="13" height="13" viewBox="0 0 13 13" fill="none" xmlns="http://www.w3.org/2000/svg">
<path d="M6.22909 11.7813C3.16867 11.7813 0.677002 9.28959 0.677002 6.22918C0.677002 3.16876 3.16867 0.677094 6.22909 0.677094C9.2895 0.677094 11.7812 3.16876 11.7812 6.22918C11.7812 9.28959 9.2895 11.7813 6.22909 11.7813ZM6.22909 1.48959C3.61284 1.48959 1.4895 3.61834 1.4895 6.22918C1.4895 8.84001 3.61284 10.9688 6.22909 10.9688C8.84534 10.9688 10.9687 8.84001 10.9687 6.22918C10.9687 3.61834 8.84534 1.48959 6.22909 1.48959Z" fill="#292D32"/>
<path d="M11.9167 12.3229C11.8138 12.3229 11.7109 12.285 11.6296 12.2037L10.5463 11.1204C10.3892 10.9633 10.3892 10.7033 10.5463 10.5462C10.7034 10.3892 10.9634 10.3892 11.1204 10.5462L12.2038 11.6296C12.3609 11.7867 12.3609 12.0467 12.2038 12.2037C12.1225 12.285 12.0196 12.3229 11.9167 12.3229Z" fill="#292D32"/>
</svg>
