<svg width="16" height="22" viewBox="0 0 16 22" fill="none" xmlns="http://www.w3.org/2000/svg">
<path d="M10.9774 19.181H6.3747C3.36737 19.181 0.928494 17.0344 0.928494 14.3899C0.928494 13.7522 1.55197 13.2233 2.3038 13.2233C3.05563 13.2233 3.67911 13.7522 3.67911 14.3899C3.67911 15.7433 4.88937 16.8477 6.3747 16.8477H10.9774C12.1693 16.8477 13.1595 15.9455 13.1595 14.8566C13.1595 13.5033 12.5911 13.2388 11.6559 12.9588L4.2659 10.7499C2.83558 10.3299 0.910156 9.42771 0.910156 6.64326C0.910156 4.24771 3.12898 2.31882 5.84292 2.31882H10.4456C13.4529 2.31882 15.8918 4.46548 15.8918 7.10993C15.8918 7.74771 15.2683 8.27659 14.5165 8.27659C13.7647 8.27659 13.1412 7.74771 13.1412 7.10993C13.1412 5.75659 11.9309 4.65215 10.4456 4.65215H5.84292C4.65099 4.65215 3.66077 5.55437 3.66077 6.64326C3.66077 7.99659 4.22923 8.26104 5.16443 8.54104L12.5544 10.7499C13.9847 11.1699 15.9102 12.0722 15.9102 14.8566C15.8918 17.2366 13.6913 19.181 10.9774 19.181Z" fill="#292D32"/>
<path d="M8.40949 21.25C7.65765 21.25 7.03418 20.7211 7.03418 20.0833V1.41667C7.03418 0.778889 7.65765 0.25 8.40949 0.25C9.16132 0.25 9.78479 0.778889 9.78479 1.41667V20.0833C9.78479 20.7211 9.16132 21.25 8.40949 21.25Z" fill="#292D32"/>
</svg>
